<?xml version="1.0" encoding="UTF-8"?>
<svg id="Layer_1" data-name="Layer 1" xmlns="http://www.w3.org/2000/svg" viewBox="0 0 110 51.31">
  <defs>
    <style>
      .cls-1 {
        fill: #949b50;
      }

      .cls-2 {
        fill: #008c99;
      }

      .cls-3 {
        fill: #c2a204;
      }

      .cls-4 {
        fill: #9b5ba5;
      }

      .cls-5 {
        fill: #807f83;
      }

      .cls-6 {
        fill: #babcbe;
      }

      .cls-7 {
        fill: #d18316;
      }
    </style>
  </defs>
  <polygon class="cls-5" points="107.55 12.01 107.38 11.9 106.09 11.61 105.8 11.72 105.33 12.31 105.33 12.89 105.98 13.77 105.98 17.97 105.71 20.24 105.51 22.52 105.51 25.15 105.16 29 104.98 32.56 104.98 37.05 105.16 39.33 105.8 40.91 106.44 41.55 106.85 41.61 107.43 41.37 107.43 41.2 107.67 40.91 107.43 39.56 107.26 39.33 107.14 38.46 106.91 37.7 106.85 30.58 107.08 28.65 107.55 20.83 107.67 14.99 107.9 12.31 107.55 12.01 107.55 12.01"/>
  <path class="cls-5" d="M101.78,32.79l-.23-2.03v-4.47l-.34-3.92-.74-2.38-.79-1.29-.96-1.34-1.02-.84-1.3-.69-1.81-.2-1.13.3-1.93,1.14-.45.5-.74.89-.4.94v.89l.68.74.34.15.62-.55v-.55l.34-.69,1.3-1.39,1.08-.55h1.47l1.3.79.85.99.57.74.91,2.48-.17.25-2.44-.2-2.72.64-1.08.5-1.76,1.24-2.49,2.18-.91.94v.2l-.51.45-.51.94-.11,1.29.34.64,1.19,1.24,1.19.3.68.4,2.83.05.68-.15,1.47-.15,1.7-.64.79-.45.51-.05.79-.45h.51v.25l-.34,1.94.74.6h.79l.85-.45.34-.69v-.5h0ZM99.52,30.16l-.62.5-2.89.79-1.59.45-1.3.1-2.49-.1-1.08-.6-.45-.64-.06-.69.28-.84.79-1.09,2.49-2.18,1.47-.94,2.04-.6.45-.2,1.7.2.79.69.23.35.28,2.83-.17,1.29.17.35-.06.35h0Z"/>
  <polygon class="cls-5" points="90.93 36.23 90.47 36.23 90.17 36.48 87.84 37.28 84.81 37.65 81.77 37.28 80.31 36.78 79.08 36.23 77.1 34.19 76.4 32.59 76.17 29.75 76.57 28.02 76.92 27.34 78.85 25.31 80.31 24.44 82.18 24.44 84.1 25.06 84.75 24.75 84.92 23.76 84.75 23.15 83.7 22.59 82.7 22.28 81.83 22.04 81.77 22.04 80.78 22.04 79.49 22.28 79.14 22.59 78.03 23.09 76.11 24.76 74.36 27.73 74.36 28.54 74.12 28.85 74.01 32.01 74.24 32.32 74.77 34.05 75.99 35.91 78.56 37.89 79.08 38.01 79.67 38.45 81.24 38.94 83.17 39.32 85.8 39.13 88.37 38.57 89.36 38.14 90.93 36.91 90.93 36.23 90.93 36.23"/>
  <polygon class="cls-5" points="49.62 39.53 49.12 39.29 48.03 39.04 46.56 39.09 43.85 39.75 42.5 39.75 41.77 39.94 40.44 39.8 39.85 39.28 39.67 38.75 39.53 36.72 39.73 34.79 40.25 31.53 40.72 28.72 41.55 25.81 41.74 24.02 42.15 23.47 42.53 21.56 42.92 20.04 43.62 17.1 43.86 14.79 44.21 13.72 44.09 12.67 43.84 12.19 42.72 11.68 41.86 12.04 41.74 13.26 41.64 16.95 39.15 27.48 38.27 30.82 38.19 31.59 37.67 34.32 37.21 38.68 37.58 40.21 37.34 40.77 37.5 40.98 38.75 42.41 40.97 42.52 41.99 42.3 43.3 42.18 43.85 41.91 44.75 41.75 45.31 41.48 47.18 41.03 49.21 40.66 49.54 40.3 49.81 40.01 49.62 39.53 49.62 39.53"/>
  <path class="cls-6" d="M19.06,30.85v-4.17l.22-4.71-.22-2.11-.27-.54-.22-.27-.87-.49h-.54l-.49.49-1.62,1.79-.97,1.35-1.14,1.46h-.16l-.32-.27.22-2.54-.27-2.38-.87-1.52-1.14-.22-1.08.27-.92.87-.49.27-1.9,2.44h-.32l-.05-.11v-5.09l-.23-.16h-.51l-.51.11-1.08.87v.54l.22.27.22,1.25v4.6l-.43,1.14v.27l.05.38.44.76v1.84l.27,1.25.27,1.62.81.92.54.11.43-.27.16-.38-.18-1.35-.47-1.84v-2.55l.49-.65.27-.7,1.14-1.68,2.22-2.33h.43l.32.87v.6l.16.27.11,2.27-.22.43v1.79l-.54,2.65.55.97.66.16.6-.33.11-.32.66-.38.38-.97,1.76-2.82,2.03-2.54h.38l.16.32-.16,2v3.79l.16,4.49.7.76.65.11.87-.6.05-1.3-.54-.76h0ZM33.03,17.05l-.76-.27h-1.03l-.32.16-.16,1.52-.32.49v1.08l-.11.32-.22.76-.49,1.3-.38,1.68-.22.22-.38,1.3-.6,1.19h-.11l-.22-.22-.22-.49-.76-.92-1.41-2.44-1.25-2.38-2-3.68-.7-.11-.49.11-.43.38v.16l.27.92.49.43,1.52,2.98,3.36,5.79.87,1.62v.76l-1.3,3.79-.54,2.11-.22.97-.16.38-.27,2-.11,1.68.27,2.06.6.54.6.11.27-.16.16-.87-.16-.33-.11-1.46.38-2.87,1.14-4.33,1.03-2.98.6-1.03.38-1.35.92-2.44.49-1.46.7-1.9.49-1.62.43-.76.16-.65.43-1.25.11-.7-.22-.16h0Z"/>
  <path class="cls-2" d="M67.93,16.55c-.07-.07-.17-.07-.27-.07-.12,0-.24.01-.35.02-.23.01-.47.07-.7,0-.25-.07-.46-.23-.66-.38.29.02.6.04.88-.09.23-.11.38-.32.51-.52.1-.16.19-.36,0-.5-.2-.16-.53-.17-.74-.02-.2.15-.21.4-.18.63-.04,0-.1.05-.14.07-.07.03-.14.07-.21.1-.15.06-.36.02-.52.02.11-.17.22-.35.32-.53.06-.12.12-.24.19-.35.13-.2.44-.47.3-.73-.17-.32-.77-.17-.86.15-.04.16.02.34.05.5.03.19.03.37-.02.56-.02.09-.07.34-.19.36-.14.02-.25-.31-.29-.4-.12-.26-.24-.53-.3-.81-.04-.16-.04-.3.09-.41.12-.1.24-.18.29-.34.06-.17.02-.39-.12-.52-.33-.3-.81.16-.85.5-.01.15.06.26.12.39.07.15.07.32.08.48.03.32.12.61.3.88-.1-.09-.17-.21-.27-.31-.08-.07-.17-.12-.25-.19-.09-.08-.19-.16-.27-.25-.15-.15-.27-.32-.38-.5-.04-.06-.05-.13-.09-.18,0,0,0,.01,0,.02v-.03s0,0,0,0c.06-.2.13-.46-.05-.62-.16-.15-.42-.12-.58,0-.19.14-.22.36-.16.58.12.4.41.77.71,1.05.51.48,1.15.71,1.81.89-.33.77-2.83,6.47-4.89,8.53l.5.65s3.39-5.11,4.53-8.96c.02.05.05.09.09.13.07.07.15.13.24.18.09.06.17.13.27.19.37.23.77.33,1.19.41.04.12.09.22.2.28.14.07.32.05.46-.03.24-.14.44-.59.2-.82h0Z"/>
  <path class="cls-3" d="M64.81,19.1c-.03-.17-.16-.34-.34-.34-.19,0-.31.18-.39.33,0,0,0,0,0,0l-.02.02s0,0,0-.01c-.05,0-.11.04-.16.05-.17.04-.34.07-.51.07-.1,0-.2,0-.31-.01-.09,0-.17-.03-.26-.04-.11,0-.23.03-.34.02.26-.05.48-.17.69-.33.1-.08.2-.18.33-.23.11-.04.22-.06.3-.16.18-.22.17-.77-.2-.78-.15,0-.3.1-.37.23-.06.12-.04.24-.03.36.01.14-.07.22-.19.29-.2.13-.43.21-.65.29-.07.03-.33.15-.4.06-.06-.08.06-.25.1-.32.08-.13.18-.25.31-.34.11-.08.25-.14.32-.26.13-.24-.13-.67-.42-.59-.23.07-.21.41-.25.6-.02.11-.06.21-.09.31-.05.16-.08.33-.12.5-.09-.09-.24-.19-.29-.31-.02-.05-.04-.12-.06-.18-.01-.03-.02-.1-.04-.12.15-.11.29-.26.26-.47-.03-.21-.23-.39-.44-.42-.19-.02-.25.14-.29.3-.05.2-.08.41,0,.6.08.23.28.4.46.56-.21-.02-.42-.06-.61-.16-.17-.1-.28-.27-.4-.41-.07-.07-.13-.15-.2-.22-.05-.06-.11-.12-.2-.12-.27,0-.42.38-.36.6.03.12.12.24.25.28.1.03.19,0,.28-.05.29.19.58.37.93.45.09.02.18.03.27.04.08.02.16.03.24.03.05,0,.09-.01.13-.02.06,1.28-1.21,3.94-2.2,5.8.15.07.27.16.35.32.02.05.03.1.04.15.88-1.56,2.07-3.33,2.02-6.33.49.27,1,.51,1.57.53.34.01.72-.03,1.02-.19.16-.09.27-.24.25-.43h0ZM58.76,26.51c-.21.36-.34.58-.34.58l.67.6c.06-.4.19-.79.36-1.18-.01,0-.03.02-.04.02-.2.08-.46.09-.65-.02h0Z"/>
  <path class="cls-1" d="M69.94,26.95s-.25-1.7,1.32-3.1c0,0,.41-.32.74.21.34.53-.47,1.14-.71,1.08-.23-.06-.19-.15-.19-.15,0,0-1.06,1.15-.97,1.98,0,0,.43-.95,1.06-1.38,0,0,.62-.8,1.07-.12.45.68-.66,1.2-1.01.81,0,0-.92.3-1.04.76,0,0,.68.42,1.29.48,0,0,.68-.28.71.42.03.71-.85.73-.95.25,0,0-.91-.42-1.17-.79,0,0,.05.64,1.5,1.77,0,0,.92-.08.63.6-.29.69-.96.24-1.02-.09,0,0-1.05-.69-1.26-1.93,0,0-.58.73-.18,1.64,0,0,.64.68.05,1.06-.59.38-.92-.14-.84-.74.08-.6.05-1.88.84-2.55,0,0-1.24,0-2.45.41-1.2.41-3.69.74-7.41-.97l.55-.55s3.27,1.66,5.44,1.35c2.17-.31,2.87-.64,4.01-.45h0Z"/>
  <path class="cls-3" d="M67.84,26.71c.11-.49-.49-.63-.58-.32,0,0-.35-.04-.58.27,0,0,.06-.56.28-.76,0,0,.52-.21.44-.45-.08-.24-.55-.63-.79.1,0,0-.41.78-.17,1.33,0,0-1.01-1.47.09-2.26,0,0,.64.27.58-.33-.06-.59-.64-.4-.72-.07,0,0-1.47,1.28.05,2.73-1.34-.79-2.19-.78-2.96-.73-.59.03-2.39-.44-3.53-.76.04.13.04.27,0,.39,0,.01-.01.03-.02.04,0,.03-.01.06-.02.09-.01.04-.03.07-.05.1,1.07.28,3.01.7,4.35.54.85-.1,1.82.35,2.18.51-.12.16-.7,1.06.27,2.25,0,0,.48.52.62.05.14-.47-.02-1.08-.48-.65,0,0-.44-.56-.11-1.47l.49.82s.03.51.5.36c.47-.16.21-.87-.2-.76l-.68-.84s.11-.17.39-.1c0,0,.53.39.65-.1h0Z"/>
  <path class="cls-4" d="M68.94,22.93c-.14-.14-.35,0-.5.03-.26.04-.54-.03-.79-.08.06-.14.13-.27.21-.4.08-.13.18-.28.3-.38.07-.06.14-.08.23-.09.09,0,.17-.04.22-.11.13-.19,0-.5-.25-.49-.21,0-.27.29-.36.44-.07.12-.16.22-.24.34-.09.13-.15.27-.21.41-.02-.28.13-.55.25-.79.07-.14.15-.29.21-.44.03-.07.06-.17.01-.24-.07-.1-.3-.16-.41-.12-.1.04-.14.14-.18.23-.06.16-.08.34-.1.52-.03.29-.02.57.05.85-1.97.37-5.77,2.52-7.53,3.55-.09.17-.26.31-.43.39-.1.04-.21.06-.32.06-.12.07-.18.11-.18.11l.33.47c1.03-1.16,6.6-4.16,8.14-4.3-.01.09-.02.19-.03.28-.02.38.04.82.35,1.08.27.23.76.28,1.03.02.27-.25-.19-.42-.37-.5-.16-.06-.31-.13-.44-.23-.11-.09-.19-.22-.26-.34.1.05.19.11.29.14.08.03.17.05.25.08.19.08.42.22.63.12.2-.1.28-.43.11-.59h0Z"/>
  <path class="cls-7" d="M72.06,21.93c-.02-.15-.12-.33-.29-.32-.17,0-.33.15-.48.23-.24.12-.49.14-.75.09-.55-.11-1.15-.46-1.49-.91-.05-.06-.09-.13-.13-.2.2.02.41.08.61.12.15.03.29.08.45.08.11,0,.23,0,.34.01.21.2.45.33.72.14.24-.17.49-.6.33-.89-.15-.28-.56-.05-.74.07-.1.07-.21.14-.32.18-.14.04-.29.05-.44.05-.14,0-.95.08-.87-.21.04-.16.25-.31.37-.4.15-.11.3-.22.47-.3.21-.1.44-.11.56-.34.18-.33-.14-.63-.46-.64-.17,0-.33.05-.43.19-.08.12-.11.27-.17.4-.07.16-.18.3-.27.45-.1.16-.18.33-.26.5-.02-.37-.06-.72-.03-1.09.03-.31.17-.58.31-.85.05-.09.58-.88.64-.92,0,0,.35,0,.53-.31.09-.16.04-.33-.06-.46-.29-.36-.83-.36-1.13-.01-.22.25-.23.57-.36.86-.22.49-.45.95-.48,1.51-.02.3.02.6.11.89.03.09.06.18.09.27-.83.1-4.76,1.39-7.68,4.94v1.01s3.93-5.18,7.79-5.64c0,.03.02.05.03.08.08.23.13.46.23.68.14.34.36.63.63.88.34.31.77.55,1.22.66.36.09.79.1,1.11-.12.21-.15.34-.4.3-.66h0Z"/>
  <path class="cls-1" d="M62.53,12.6c-.15-.21-.89-.25-1.09-.11-.14.1-.23.31-.21.48.01.13.12.23.11.36-.02.26-.35.57-.6.6-.61.09-.14-.57-.04-.82.18-.12.34-.28.29-.52-.07-.34-.55-.63-.87-.42-.29.2-.16.59-.09.86.06.26.03.5-.02.77-.3-.24-.53-.5-.65-.86-.13-.39-.11-.98-.43-1.26-.31-.28-.78,0-.88.35-.13.44.28.81.59,1.06.31.26.62.51.92.78-.4.06-.84.16-1.23-.01-.23-.1-.42-.2-.63-.33-.11-.07-.27-.16-.4-.19-.01-.06-.05-.09-.11-.1h.03c-.13-.19-.39-.62-.68-.47-.25.13-.27.55-.2.78.1.3.38.42.66.51.48.15.99.26,1.5.3.55.05,1.02-.05,1.49-.32-.18.25-.76,1.13-.89,2.51-.15,1.65-.33,5.92-.06,7.84l.65.12s-.64-4.74-.23-7.49c.3-2.03.6-2.69.73-2.9.26.18.68.15.96.13.48-.04.9-.34.94-.83.34.02.65-.53.45-.82h0Z"/>
  <path class="cls-7" d="M59.77,17.17c.14-.18.15-.55-.07-.68-.23-.13-.45.22-.58.36-.1.11-.21.2-.36.25-.14.05-.3.04-.45.03.28.01.45-.14.62-.33.19-.22.41-.47.44-.77.02-.17-.04-.34-.2-.42-.13-.07-.3-.07-.42.02-.1.07-.09.18-.06.29.04.13.08.26.04.4-.07.33-.34.59-.61.77-.11-.33-.2-.73-.06-1.06.03-.07.09-.13.1-.21.01-.11-.06-.23-.13-.31-.1-.12-.26-.21-.42-.19-.13.01-.26.09-.29.22-.03.11.03.2.09.29.08.11.13.22.15.36.03.17.03.34.08.5.04.14.12.25.22.35-.23-.07-.47-.14-.7-.23-.23-.09-.49-.19-.64-.39-.16-.21-.13-.68-.49-.64-.15.02-.3.12-.33.27-.03.14.04.28.15.36.09.07.2.11.3.17.14.08.27.18.4.26.36.23.73.41,1.16.36-.63.48-1.3.38-1.89.08-.22-.12-.22-.37-.56-.56-.11-.1-.2-.07-.26.06-.08.15-.12.35-.06.52.05.17.2.24.36.3.18.06.37.11.55.17.25.08.5.14.76.16.5.02.95-.11,1.33-.42-.96,4.11-.06,6.95.42,8.04.02-.1.06-.2.12-.27.09-.1.17-.2.3-.25.1-.03.15-.05.2-.06-1.68-3.05-.86-6.82-.71-7.55.27.04.34.06.6.05.3,0,.69-.04.89-.3h0Z"/>
  <path class="cls-3" d="M46.98,27.26c.1.17.34.08.49.1.26.02.51.16.75.26-.09.12-.19.23-.3.34-.11.11-.24.23-.38.3-.08.04-.16.04-.24.03-.09-.01-.17,0-.24.06-.17.15-.12.49.12.54.21.05.33-.22.46-.34.1-.09.21-.18.31-.27.11-.1.21-.22.31-.35-.04.28-.26.5-.44.71-.1.12-.22.24-.31.38-.04.06-.1.15-.07.23.04.12.25.23.37.21.1-.01.17-.1.23-.18.1-.15.16-.31.22-.48.1-.27.15-.55.15-.83,2.65.15,9.21-1.94,9.21-1.94l-.21-.53c-1.28.88-7.41,2.44-8.93,2.21.03-.09.07-.17.1-.26.12-.36.16-.8-.08-1.13-.2-.29-.67-.45-.99-.27-.32.18.08.46.24.57.14.1.27.2.37.34.09.12.13.26.17.4-.08-.07-.16-.15-.25-.21-.07-.05-.15-.09-.22-.14-.17-.13-.35-.32-.58-.27-.22.04-.37.35-.25.55h0Z"/>
  <path class="cls-3" d="M53.66,15.83s1.64-.49,2.25-2.51c0,0,.12-.5-.5-.58-.62-.08-.84.91-.68,1.1.16.18.22.11.22.11,0,0-.6,1.45-1.38,1.72,0,0,.68-.79.8-1.54,0,0,.46-.9-.34-1.02-.8-.12-.8,1.11-.3,1.25,0,0,.11.96-.25,1.26,0,0-.67-.44-.98-.97,0,0-.03-.73-.68-.46-.65.27-.3,1.08.17.97,0,0,.77.64,1.21.73,0,0-.6.23-2.23-.61,0,0-.31-.87-.81-.31-.5.55.18.97.51.89,0,0,1.07.66,2.29.33,0,0-.41.84-1.41.85,0,0-.89-.29-.99.4-.1.69.52.77,1.03.45.51-.33,1.68-.84,1.96-1.84,0,0,.53,1.13.67,2.39.14,1.26.92,4.08,4.04,6.72l.22-.47s-2.88-2.94-3.52-5.03c-.64-2.1-.63-2.87-1.29-3.83h0Z"/>
  <path class="cls-4" d="M58.56,25.19c-1.24-1.24-2.68-2.54-3.43-3.17-1.01-.84-1.98-1.04-2.26-1.08.49-.14.87-.38,1.2-.78.31-.36.57-.78.8-1.2.13-.25.24-.51.1-.78-.1-.2-.4-.47-.65-.39-.3.09-.18.55-.14.77l.02-.02s-.04.09,0,.14c-.07.1-.11.27-.14.39-.06.23-.12.42-.2.64-.15.38-.5.6-.81.83.01-.38.06-.75.09-1.13.04-.37.07-.88-.31-1.09-.3-.17-.79-.04-.82.35-.03.41.38.79.55,1.13.16.33.18.65.14,1.01-.21-.14-.39-.28-.52-.49-.14-.22-.31-.57-.63-.51-.35.07-.48.58-.3.85.12.19.34.19.54.15.23.11.98.22.52.58-.19.14-.61.16-.8,0-.09-.08-.09-.22-.16-.31-.1-.13-.3-.21-.46-.18-.23.04-.69.56-.65.8.06.33.63.49.84.25.36.3.83.22,1.18-.07.21-.18.5-.44.55-.72.23.05.86.29,2.41,1.44,1.03.76,2.2,2,3.14,3.07.02-.13.06-.28.15-.38.02-.03.05-.05.07-.08h0ZM59.14,26.59c.54.66.9,1.12.9,1.12l.35-.51c-.19-.25-.43-.54-.71-.84-.08.07-.17.14-.27.18-.08.03-.17.05-.27.06h0Z"/>
  <path class="cls-2" d="M58.7,26.49l-.7-.37s-3.45,3.33-3.68,10.4c-.37-.5-.89-.83-1.52-.96-.33-.07-.66-.08-.99-.06-.25.01-.5.01-.75.03-.21.01-.42.06-.54.25-.12.19-.14.45-.09.66.04.18.14.25.31.16.49-.11.57-.43.88-.5.83-.18,1.7-.08,2.32.73-.52-.2-1.05-.1-1.56.06-.2.06-.39.14-.59.19-.14.03-.3.05-.43.11-.16.07-.3.21-.31.4,0,.2.14.38.32.45.44.17.55-.42.82-.63.26-.2.61-.24.93-.27.31-.03.63-.04.94-.05-.16.09-.3.2-.39.36-.11.19-.17.4-.26.59-.07.16-.17.28-.31.39-.1.09-.21.18-.21.33,0,.17.14.32.29.37.2.07.42.01.58-.1.11-.08.25-.2.27-.34.01-.1-.04-.19-.05-.29-.06-.46.18-.93.43-1.3.29.31.53.72.51,1.16,0,.19-.09.33-.19.48-.08.12-.12.25-.02.38.11.15.33.21.51.17.22-.05.35-.25.38-.46.07-.39-.13-.77-.29-1.11-.15-.3-.32-.55-.66-.62.19.04.38.08.55.19.16.1.27.26.36.43.11.21.27.73.6.64.32-.09.43-.55.32-.82-.16-.39-.63-.56-1-.66-.33-.1-.67-.16-1.01-.2.07-1.05.63-7.9,4.24-10.18h0Z"/>
  <path class="cls-1" d="M61.54,47.69c-.83-3.27-2.06-6.5-2.38-9.88-.32-3.42.58-6.82.43-10.25-.03-.63-1.01-.63-.98,0,.15,3.43-.67,6.82-.43,10.25.25,3.47,1.56,6.8,2.41,10.14.16.61,1.1.35.95-.26"/>
  <path class="cls-3" d="M58.08,26.81l.55.27s-1.47,4.96-1.86,6.1c-.21.6-.16,1.14-.15,1.52.19-.05,1.21-.24,1.93,1.07,0,0,.29.62-.18.58-.48-.04-.97-.41-.41-.67,0,0-.35-.6-1.29-.64l.56.74s.45.22.14.58c-.31.36-.86-.13-.61-.46l-.51-.92s-.19.04-.24.31c0,0,.16.63-.33.55-.49-.08-.39-.67-.08-.64,0,0,.09-.33.46-.42,0,0-.52-.15-.79-.02,0,0-.38.39-.56.23-.18-.16-.37-.73.38-.68,0,0,.85-.08,1.27.33,0,0-.96-1.45-2.08-.75,0,0,0,.68-.51.41-.52-.27-.13-.73.2-.68,0,0,1.7-.86,2.46,1.04-.11-1.32.52-2.97.53-3.49.02-.6,1.13-4.38,1.13-4.38h0Z"/>
  <path class="cls-3" d="M71.13,33.04c.03-.22-.11-.41-.3-.52-.34-.19-.77-.14-1.14-.1-.34.04-.62.11-.81.41.1-.16.21-.33.36-.45.15-.12.34-.17.53-.19.24-.03.78,0,.81-.34.03-.33-.37-.59-.67-.58-.42.02-.74.41-.97.72-.2.28-.38.57-.53.88-.97-.42-7.21-3.29-8.12-7.47l-.32.29h0c0,.07,0,.13-.03.19h0s-.01.03-.02.04c0,.03-.01.06-.02.09-.02.06-.04.12-.08.17.52.96,2.75,4.51,8.39,6.76-.6.18-1.08.55-1.43,1.1-.18.28-.3.59-.4.91-.07.24-.16.47-.23.71-.06.2-.09.42.05.6.13.18.37.29.59.32.18.02.28-.04.26-.23.06-.5-.21-.68-.17-1,.11-.84.51-1.63,1.48-1.93-.37.42-.45.95-.48,1.49,0,.2,0,.41-.02.62-.02.15-.06.29-.05.44.01.18.1.36.27.43.19.07.41,0,.54-.15.31-.35-.21-.66-.31-.99-.1-.31-.02-.66.06-.96.08-.3.18-.6.27-.9.03.18.09.35.21.5.14.17.32.29.47.45.12.12.2.26.27.42.05.13.1.26.24.31.16.06.35-.02.45-.15.13-.16.16-.39.11-.58-.03-.13-.1-.3-.23-.37-.09-.05-.2-.03-.29-.05-.45-.1-.81-.49-1.07-.85.39-.16.86-.25,1.26-.08.17.07.28.2.39.34.09.11.2.19.35.15.18-.06.31-.24.33-.42h0Z"/>
  <path class="cls-7" d="M59.86,38.94c.2.17.92.01,1.08-.17.11-.13.15-.36.08-.52-.05-.12-.18-.19-.2-.32-.05-.25.19-.64.42-.74.57-.24.28.51.25.78-.15.16-.26.36-.15.57.15.31.7.46.94.18.23-.26,0-.61-.13-.85-.13-.24-.16-.48-.18-.75.35.16.64.34.85.67.22.34.36.92.75,1.11.37.19.75-.2.76-.56,0-.46-.48-.71-.84-.87-.37-.17-.73-.33-1.09-.52.37-.17.77-.37,1.19-.31.25.04.46.08.7.15.13.04.3.09.44.08.03.05.07.08.13.07h-.03c.18.16.54.51.78.29.21-.19.12-.6-.01-.81-.17-.27-.47-.31-.77-.32-.5-.02-1.03,0-1.52.1-.54.1-.97.32-1.36.69.11-.29.44-1.29.21-2.66-.28-1.63-1.22-5.8-1.97-7.59l-.66.05s1.84,4.41,2.16,7.18c.23,2.04.12,2.76.04,2.99-.29-.11-.69.03-.96.13-.46.16-.78.56-.7,1.05-.34.07-.49.68-.22.91h0Z"/>
  <path class="cls-7" d="M58.13,26.22v-.67s-5.18-2.52-7.05-2.89c-.88-.29-2.18-1.07-2.62-1.42.22-.18,1.45-1.32.55-3.3,0,0-.47-.89-.84-.3-.37.59-.37,1.49.42,1.06,0,0,.39.93-.39,2.06l-.37-1.3s.14-.72-.56-.67c-.7.04-.6,1.11,0,1.11l.62,1.4s-.21.19-.57,0c0,0-.59-.73-.92-.1-.34.63.44,1.05.68.66,0,0,.46.19.9-.16,0,0-.28.74-.66.94,0,0-.78.1-.76.45.02.35.52,1.07,1.12.15,0,0,.84-.92.72-1.76,0,0,.85,2.38-.95,3.07,0,0-.78-.6-.92.23-.14.84.73.78.97.36,0,0,2.48-1.22.94-3.77,1.55,1.58,3.09,1.83,3.8,2.09,1.19.45,5.9,2.76,5.9,2.76h0Z"/>
  <path class="cls-4" d="M57.48,26.32s-4.67,2.19-5.76,2.52c-1.09.33-3.06,1.15-3.57,2.57,0,0-.53-2.03-1.94-1.88,0,0-.53-.52-.83.03-.3.55.25,1.24.83.49,0,0,.84-.4,1.43,1.11,0,0-.79-.04-1.2.24,0,0-.7-.18-.56.54.14.73.67.51.94,0,0,0,.28-.47,1.17-.19,0,0,.15.46-.47.98,0,0-.57-.12-.71.42-.14.53.93.82.95.14,0,0,.57-.57.65-1.3,0,0,.5.83.27,1.44,0,0-.65.24-.34.82.31.58.81,0,.81-.18,0,0,.57-1.59-.89-2.44,0,0,1.09-1.65,3.3-2.37,2.21-.72,6.33-2.34,6.58-2.57l-.65-.39h0Z"/>
  <path class="cls-2" d="M58.91,24.78c-2.2,1.03-7.4,1.37-8.09,1.41.04-.57.04-1.14-.19-1.67-.13-.32-.34-.65-.62-.86-.15-.11-.34-.15-.5-.04-.14.09-.24.29-.17.46.08.18.3.2.47.21,0,0,0,0,0,0h.02s-.01,0-.02,0c.03.05.08.08.12.13.11.14.21.28.29.44.05.09.08.19.12.29.03.08.04.17.08.25.04.11.12.2.16.3-.16-.22-.36-.37-.6-.49-.12-.06-.26-.11-.36-.2-.09-.08-.15-.18-.27-.21-.28-.07-.78.17-.64.52.06.15.22.24.38.24.14,0,.23-.07.35-.13.12-.07.23-.03.35.05.2.13.38.3.55.47.06.06.28.24.23.35-.04.09-.26.05-.33.05-.16-.02-.31-.06-.44-.14-.12-.07-.23-.17-.38-.18-.27-.02-.56.41-.36.63.17.19.47.02.66-.03.11-.02.22-.03.33-.05.17-.03.34-.06.51-.1-.05.12-.08.3-.16.4-.04.05-.09.09-.14.13-.02.02-.08.06-.09.09-.17-.09-.37-.16-.54-.04-.18.12-.26.38-.19.59.06.18.24.17.4.14.2-.04.41-.1.56-.25.18-.18.25-.43.32-.66.07.2.13.41.11.63-.01.2-.13.37-.2.55-.04.09-.08.18-.11.27-.03.07-.06.15-.02.23.12.25.53.22.71.08.1-.08.17-.22.16-.35-.01-.11-.08-.18-.16-.24.05-.35.09-.7.01-1.05-.02-.09-.05-.17-.07-.26-.02-.08-.04-.16-.07-.24-.02-.04-.05-.08-.08-.11,2.46.15,5.81-.46,7.41-.8.02-.11.06-.21.13-.29.09-.1.17-.2.3-.25.12-.04.16-.06.23-.06l-.11-.17h0Z"/>
  <path class="cls-1" d="M52.95,35.04c-.21.04-.64-.36-.68-.55-.02-.14.04-.31.15-.4.08-.06.2-.06.27-.14.14-.16.12-.52,0-.68-.3-.4-.4.24-.49.44.04.17.04.35-.13.46-.23.15-.67.04-.73-.25-.05-.28.24-.42.43-.54.18-.12.3-.27.42-.45-.3-.03-.58-.02-.86.12-.29.15-.61.49-.96.47-.33-.02-.44-.44-.3-.7.18-.32.62-.3.93-.27.32.03.64.07.97.08-.19-.26-.38-.57-.7-.69-.19-.07-.35-.12-.54-.17-.1-.03-.25-.06-.33-.12-.04.03-.08.02-.12,0h.01c-.18.05-.57.15-.65-.1-.07-.21.16-.47.33-.56.23-.12.45-.02.66.09.36.19.71.42,1.02.68.34.28.55.61.66,1.02.04-.25.21-1.07.92-1.93.85-1.02,3.17-3.54,4.41-4.48l.44.3s-3.05,2.32-4.37,4.12c-.98,1.32-1.19,1.87-1.23,2.06.25.04.47.3.62.47.25.3.32.7.06,1.01.2.18.07.67-.21.72h0Z"/>
  <path class="cls-4" d="M61.12,33.63c-.01-.11-.11-.18-.2-.24-.15-.1-.33-.17-.51-.24-.29-.1-.58-.16-.89-.16.13-2.29-.68-5.53-.99-6.66-.05-.06-.1-.12-.13-.2-.02-.06-.04-.12-.06-.18l-.5.2c.93,1.36,1.4,5.04,1.39,6.77-.09-.04-.19-.07-.28-.1-.39-.12-.85-.17-1.2.08-.3.22-.48.71-.29,1.05.19.34.48-.09.61-.25.1-.14.21-.29.36-.4.13-.09.27-.14.42-.18-.08.08-.16.17-.22.27-.05.08-.09.16-.15.23-.13.18-.34.37-.29.62.05.23.37.4.58.27.18-.1.09-.36.1-.52.02-.28.17-.54.28-.79.13.1.25.2.36.32.12.12.24.25.32.41.04.09.04.16.03.26-.01.09,0,.18.06.25.16.18.52.12.57-.13.05-.22-.23-.35-.36-.49-.1-.11-.19-.22-.28-.33-.11-.12-.24-.22-.37-.32.3.05.53.28.75.47.13.11.26.23.4.33.07.05.16.1.25.07.13-.05.24-.26.23-.39h0Z"/>
  <path class="cls-2" d="M66.94,31.88c-1.73-.25-2.68.82-2.68.82-.49-.84-1.07-1.1-2.43-2.32-1.01-.91-1.94-2.92-2.34-3.88-.02.01-.05.03-.07.04-.12.05-.25.07-.39.06.95,2.85,2.61,4.26,3.46,4.77.9.55,1.57,1.34,1.57,1.34-.85-.14-1.65.57-2.08.83-.43.27-.58.76-.02.93.56.17.65-.6.65-.6.37-.75,1.14-.77,1.14-.77-.68.8-.56,1.84-.56,1.84-.18.21-.1.88.49.69.59-.18.05-.72.05-.72-.06-1.53.33-1.9.33-1.9-.09.36.12,1.17.12,1.17-.25.32.23.87.67.47.44-.4-.11-.68-.11-.68-.29-.42-.39-1.08-.39-1.08.36-.17,1.04.26,1.04.26-.06.43.86.86,1.05.21.19-.65-.65-.62-.65-.62-.6-.17-1.44.06-1.44.06.48-.5,1.78-.44,1.78-.44,0,0-.08.02,0,.21.08.18.91.37,1.07-.13.16-.5-.26-.58-.26-.58h0Z"/>
  <path class="cls-1" d="M60.48,24.26c-.47-.27-1.01-.4-1.54-.41h-.03c-.51.07-1.03.17-1.36.6-.37.47-.44,1.15-.33,1.72.21,1.11,1.12,1.53,2.16,1.52.92-.01,1.47-.49,1.68-1.39.17-.73.14-1.63-.58-2.04h0ZM59.94,25.88s-.01.03-.02.04c0,.03-.01.06-.02.09-.06.23-.28.43-.49.52-.22.09-.53.11-.73-.06-.11-.1-.21-.19-.27-.33-.05-.14-.1-.29-.08-.44.02-.14.06-.31.15-.42.09-.1.17-.2.3-.25.18-.06.19-.07.38-.07.12,0,.25.03.36.09.17.08.3.17.38.34.08.16.09.34.03.51h0Z"/>
  <path class="cls-4" d="M75.96,11.09s1.42.93,3.33.11c0,0,.46-.23.12-.75-.34-.52-1.22-.05-1.26.18-.04.24.06.24.06.24,0,0-1.48.47-2.18.04,0,0,1.04.01,1.68-.37,0,0,.97-.22.56-.91-.42-.68-1.35.1-1.14.57,0,0-.65.7-1.12.62,0,0-.09-.78.11-1.36,0,0,.54-.49-.08-.81-.62-.32-1.01.46-.62.75,0,0,0,.99.22,1.38,0,0-.55-.31-.96-2.08,0,0,.46-.79-.28-.81-.74-.03-.62.76-.35.95,0,0,.18,1.23,1.21,1.94,0,0-.9.22-1.55-.53,0,0-.34-.86-.93-.49-.59.37-.26.89.31,1.06.57.18,1.71.74,2.64.32,0,0-.35.78-1.22,1.69-.26.27-.94.71-1.28,1.63-.52,1.39-.45,2.69.73-.09.52-1.23,1.67-1.72,2.01-3.28h0Z"/>
  <path class="cls-3" d="M86.76,13.55c-.22-.18-.51.05-.73.11-.37.1-.79.04-1.16.01.07-.21.15-.42.25-.62.1-.21.21-.43.38-.6.09-.1.19-.13.32-.16.13-.03.24-.08.3-.2.16-.3-.09-.73-.44-.68-.31.04-.35.46-.46.69-.09.18-.2.35-.3.53-.1.2-.18.41-.25.63-.08-.41.11-.82.25-1.2.08-.22.18-.44.24-.67.03-.11.06-.26-.02-.35-.12-.14-.46-.19-.62-.11-.13.07-.19.23-.22.37-.06.25-.07.51-.07.77,0,.42.06.83.21,1.23-1.26.38-3.13,1.14-4.76,2.43-1.83,1.45-1.64,2.32.5.38,1.6-1.44,3.42-2.23,4.29-2.4,0,.14,0,.28,0,.41.02.56.19,1.19.68,1.52.43.29,1.15.29,1.5-.13.35-.41-.34-.59-.62-.67-.24-.07-.48-.14-.68-.27-.18-.12-.31-.29-.43-.46.15.06.3.13.45.16.12.03.25.05.37.09.3.09.64.26.94.08.28-.17.34-.66.08-.88h0Z"/>
  <path class="cls-7" d="M81.94,8.04c.49-.89,1.17-1.83,2.14-2.7-.48.03-.93-.12-1.32-.42-.2-.16-.37-.35-.53-.56-.12-.15-.24-.3-.35-.45-.1-.13-.17-.28-.12-.44.05-.16.19-.31.34-.38.13-.07.21-.04.25.1.18.34.03.55.14.77.3.58.79,1.04,1.58,1.01-.37-.21-.58-.57-.74-.95-.06-.15-.11-.3-.18-.44-.05-.1-.12-.2-.15-.31-.04-.13-.02-.29.08-.38.11-.1.3-.1.43-.03.32.17.02.54.04.79.01.25.16.48.3.68.14.2.29.39.44.58-.02-.14-.03-.28.02-.41.05-.16.15-.3.22-.45.06-.12.08-.24.08-.38,0-.1,0-.21.09-.29.1-.09.25-.08.37-.01.14.08.21.24.23.39.01.1,0,.25-.07.33-.05.06-.13.07-.2.11-.3.19-.46.57-.55.9.32.02.69-.05.93-.27.11-.1.15-.21.19-.35.03-.11.09-.19.21-.2.14,0,.29.09.35.22.08.15.03.33-.08.45-.2.23-.52.31-.8.38-.25.06-.48.08-.7-.08.12.09.24.18.38.23.14.04.29.03.43,0,.18-.04.56-.2.67.04.11.23-.11.53-.33.6-.31.1-.64-.1-.89-.26-.22-.15-.27-.2-.46-.39-.28.27-1.24,1.34-1.81,2.79-.62,1.6-1.4,1.15-.65-.21h0Z"/>
</svg>