<?xml version="1.0" encoding="UTF-8"?>
<svg id="Layer_1" data-name="Layer 1" xmlns="http://www.w3.org/2000/svg" viewBox="0 0 512 512">
  <defs>
    <style>
      .cls-1 {
        fill: #949b50;
      }

      .cls-2 {
        fill: #008c99;
      }

      .cls-3 {
        fill: #c2a204;
      }

      .cls-4 {
        fill: #9b5ba5;
      }

      .cls-5 {
        fill: #d18316;
      }
    </style>
  </defs>
  <path class="cls-2" d="M409.68,106c-1.19-1.19-2.94-1.24-4.57-1.19-2.01.04-4.01.17-5.97.3-3.93.17-7.98,1.19-11.82.09-4.14-1.15-7.81-3.84-11.14-6.49,4.91.34,10.2.73,14.76-1.45,3.8-1.83,6.4-5.33,8.58-8.83,1.71-2.77,3.16-6.06.17-8.49-3.33-2.69-9-2.94-12.46-.34-3.41,2.56-3.54,6.74-3.03,10.58-.73,0-1.71.81-2.35,1.11-1.11.51-2.35,1.24-3.46,1.66-2.52.94-6.1.34-8.75.34,1.88-2.94,3.8-5.89,5.46-8.96,1.07-1.96,2.01-3.97,3.2-5.85,2.13-3.37,7.42-7.98,5.08-12.42-2.9-5.42-13.06-2.9-14.51,2.47-.77,2.77.38,5.67.9,8.41.6,3.16.43,6.31-.34,9.43-.34,1.45-1.19,5.76-3.16,6.02-2.3.3-4.27-5.29-4.95-6.74-2.05-4.35-4.05-8.96-5.12-13.65-.6-2.65-.68-5.08,1.54-6.91,2.05-1.71,4.05-2.99,4.91-5.67.98-2.94.38-6.66-1.96-8.79-5.59-5.08-13.74,2.69-14.25,8.49-.26,2.56,1.11,4.39,2.09,6.57,1.11,2.56,1.11,5.42,1.41,8.15.55,5.38,2.09,10.33,5.12,14.81-1.71-1.49-2.9-3.63-4.61-5.16-1.32-1.19-2.9-2.05-4.27-3.24-1.54-1.41-3.16-2.73-4.61-4.27-2.47-2.6-4.48-5.46-6.36-8.49-.6-.98-.94-2.18-1.58-3.11,0,.09-.04.21-.09.3v-.47s.04.13.09.17c.94-3.37,2.13-7.77-.77-10.5-2.69-2.52-7.08-1.96-9.86.09-3.2,2.35-3.71,6.14-2.69,9.77,1.96,6.78,7,12.97,12.07,17.66,8.62,8.06,19.37,11.95,30.51,15.1-5.59,12.97-47.74,109.27-82.65,143.96l8.36,11.01s57.22-86.36,76.54-151.21c.38.77.85,1.54,1.49,2.22,1.15,1.24,2.6,2.13,4.01,3.03,1.54,1.02,2.94,2.22,4.52,3.2,6.19,3.88,13.01,5.55,20.05,6.95.64,1.96,1.49,3.75,3.41,4.74,2.43,1.24,5.42.81,7.68-.55,4.01-2.39,7.34-10.03,3.46-13.91h0l-.13.09Z"/>
  <path class="cls-3" d="M357.11,148.97c-.43-2.82-2.69-5.67-5.67-5.76-3.29-.09-5.16,3.11-6.57,5.63.04,0,.09,0,.13-.04l-.26.26s.09-.17.13-.21c-.94.17-1.79.68-2.73.9-2.86.68-5.67,1.15-8.62,1.24-1.75.04-3.46-.09-5.16-.17-1.49-.09-2.9-.51-4.35-.6-1.88-.09-3.8.47-5.67.34,4.39-.85,8.15-2.82,11.61-5.63,1.75-1.41,3.41-3.11,5.55-3.93,1.88-.73,3.67-.98,5.03-2.65,3.07-3.71,2.82-12.93-3.37-13.23-2.6-.13-5.12,1.71-6.27,3.97-1.02,2.05-.64,3.97-.43,6.14.21,2.35-1.24,3.71-3.16,4.91-3.37,2.13-7.21,3.63-10.92,4.99-1.24.47-5.63,2.56-6.83,1.07-.98-1.28,1.02-4.31,1.66-5.33,1.37-2.26,3.11-4.18,5.29-5.67,1.88-1.28,4.22-2.3,5.42-4.35,2.26-3.97-2.18-11.35-7-9.9-3.97,1.19-3.54,6.95-4.27,10.15-.38,1.79-1.07,3.5-1.54,5.25-.81,2.77-1.41,5.59-2.05,8.41-1.54-1.58-3.97-3.29-4.91-5.29-.43-.9-.73-2.01-1.07-2.99-.21-.55-.3-1.62-.73-2.01,2.56-1.92,4.91-4.44,4.39-7.89-.51-3.5-3.97-6.66-7.47-7.04-3.16-.34-4.22,2.43-4.86,5.03-.77,3.29-1.28,6.87-.17,10.11,1.37,3.93,4.69,6.78,7.72,9.43-3.5-.43-7.17-.98-10.24-2.69-2.9-1.62-4.65-4.57-6.83-6.95-1.11-1.19-2.18-2.43-3.33-3.63-.9-.98-1.92-1.96-3.33-1.96-4.57,0-7.04,6.4-6.1,10.11.55,2.09,2.05,4.1,4.14,4.78,1.71.55,3.24,0,4.74-.77,4.91,3.24,9.86,6.23,15.7,7.59,1.49.34,2.99.47,4.48.77,1.37.26,2.69.6,4.1.55.77,0,1.49-.17,2.18-.43,1.02,21.55-20.39,66.43-37.12,97.96,2.56,1.28,4.61,2.73,5.89,5.46.38.81.47,1.66.64,2.52,14.76-26.37,34.94-56.15,34.09-106.84,8.32,4.65,16.81,8.62,26.54,8.96,5.72.21,12.2-.47,17.28-3.29,2.73-1.49,4.61-4.01,4.14-7.25h0l.17-.04ZM254.92,274.07c-3.5,6.14-5.67,9.81-5.67,9.81l11.31,10.03c.98-6.83,3.16-13.35,6.02-19.88-.21.13-.43.26-.68.38-3.33,1.37-7.72,1.58-11.01-.34h.04Z"/>
  <path class="cls-1" d="M443.6,281.58s-4.14-28.63,22.31-52.31c0,0,6.83-5.46,12.5,3.5,5.67,8.96-8.02,19.29-11.95,18.22-3.93-1.07-3.29-2.6-3.29-2.6,0,0-17.83,19.46-16.43,33.41,0,0,7.3-16.13,17.83-23.25,0,0,10.45-13.48,18.01-2.05,7.55,11.43-11.22,20.18-17.02,13.61,0,0-15.49,5.08-17.58,12.8,0,0,11.43,7.08,21.8,8.06,0,0,11.43-4.82,11.9,7.17.51,11.95-14.38,12.29-16.04,4.27,0,0-15.32-7.17-19.8-13.31,0,0,.77,10.79,25.26,29.78,0,0,15.49-1.37,10.58,10.2-4.91,11.56-16.13,4.1-17.15-1.45,0,0-17.75-11.65-21.29-32.68,0,0-9.86,12.29-2.99,27.73,0,0,10.79,11.48.85,17.96-9.9,6.49-15.53-2.43-14.12-12.5,1.41-10.11.9-31.7,14.12-43.14,0,0-20.99,0-41.34,6.87-20.31,6.91-62.38,12.5-125.1-16.34l9.3-9.26s55.17,28.03,91.82,22.83c36.65-5.21,48.43-10.88,67.75-7.55h0l.04.04Z"/>
  <path class="cls-3" d="M408.18,277.57c1.92-8.32-8.28-10.71-9.81-5.46,0,0-5.89-.73-9.77,4.65,0,0,.94-9.43,4.74-12.76,0,0,8.7-3.58,7.38-7.55-1.32-3.97-9.3-10.71-13.31,1.66,0,0-6.87,13.14-2.9,22.49,0,0-17.07-24.75,1.45-38.1,0,0,10.84,4.52,9.86-5.5-.94-10.03-10.84-6.74-12.2-1.19,0,0-24.75,21.67.81,46.12-22.61-13.31-36.99-13.1-50.01-12.33-10.03.55-40.41-7.38-59.52-12.76.6,2.18.73,4.48,0,6.61-.09.26-.21.43-.3.68-.09.51-.17,1.02-.34,1.54-.17.6-.51,1.15-.77,1.75,18.05,4.65,50.86,11.82,73.43,9.09,14.34-1.75,30.72,5.97,36.78,8.66-2.01,2.77-11.82,17.96,4.52,37.93,0,0,8.06,8.7,10.5.81,2.43-7.89-.34-18.18-8.06-10.92,0,0-7.38-9.47-1.83-24.83l8.23,13.82s.55,8.66,8.45,5.97c7.89-2.65,3.5-14.63-3.41-12.8l-11.43-14.08s1.88-2.86,6.57-1.75c0,0,9,6.61,10.92-1.66h0l.04-.09Z"/>
  <path class="cls-4" d="M426.74,213.7c-2.3-2.3-5.85,0-8.45.43-4.39.73-9.05-.51-13.31-1.28,1.07-2.35,2.22-4.61,3.54-6.78,1.41-2.26,2.99-4.74,5.03-6.44,1.19-.98,2.39-1.28,3.88-1.45,1.49-.17,2.82-.64,3.67-1.88,2.22-3.2-.09-8.49-4.18-8.36-3.63.09-4.57,4.91-6.1,7.38-1.24,1.96-2.77,3.75-4.01,5.67-1.45,2.18-2.52,4.52-3.58,6.91-.38-4.74,2.26-9.3,4.31-13.4,1.19-2.43,2.56-4.86,3.5-7.42.47-1.24,1.02-2.86.17-4.05-1.19-1.79-4.99-2.73-6.95-2.01-1.62.64-2.43,2.43-2.99,3.97-.98,2.77-1.41,5.8-1.71,8.7-.47,4.86-.26,9.6.9,14.29-33.19,6.27-97.45,42.45-127.19,59.95-1.58,2.9-4.39,5.33-7.34,6.53-1.62.68-3.5,1.02-5.38,1.07-1.96,1.19-3.11,1.92-3.11,1.92l5.59,7.85c17.37-19.63,111.36-70.19,137.34-72.62-.17,1.58-.43,3.16-.51,4.74-.38,6.44.73,13.82,5.93,18.22,4.52,3.88,12.76,4.74,17.37.38,4.48-4.27-3.16-7.13-6.23-8.36-2.6-1.07-5.29-2.13-7.51-3.97-1.92-1.58-3.2-3.67-4.39-5.8,1.62.9,3.24,1.79,4.99,2.43,1.41.51,2.82.85,4.18,1.45,3.29,1.37,7.04,3.75,10.67,2.05,3.46-1.62,4.74-7.17,1.92-9.98h0l-.04-.13Z"/>
  <path class="cls-5" d="M479.52,196.76c-.38-2.56-1.96-5.55-4.91-5.42-2.9.13-5.55,2.6-8.06,3.84-3.97,2.01-8.32,2.43-12.67,1.58-9.26-1.79-19.46-7.77-25.09-15.45-.81-1.07-1.49-2.26-2.18-3.41,3.37.26,6.95,1.41,10.33,2.09,2.6.51,4.99,1.32,7.64,1.32,1.92,0,3.88.09,5.76.17,3.54,3.41,7.59,5.5,12.12,2.3,4.01-2.82,8.23-10.07,5.55-14.98-2.6-4.78-9.39-.85-12.5,1.11-1.75,1.11-3.46,2.35-5.46,2.99-2.35.73-4.95.77-7.38.85-2.43.09-16,1.32-14.72-3.58.73-2.77,4.14-5.16,6.27-6.83,2.47-1.92,5.08-3.8,7.94-5.12,3.5-1.66,7.38-1.83,9.43-5.67,2.94-5.59-2.3-10.58-7.81-10.79-2.82-.13-5.55.94-7.17,3.29-1.41,2.05-1.92,4.57-2.94,6.78-1.24,2.65-2.99,5.03-4.52,7.51-1.71,2.73-3.07,5.59-4.31,8.53-.43-6.19-1.07-12.25-.51-18.43.47-5.25,2.9-9.73,5.21-14.34.77-1.58,9.81-14.89,10.75-15.49,0,0,5.85.17,8.96-5.25,1.54-2.65.68-5.63-1.02-7.72-4.91-6.06-14.08-5.97-19.16-.21-3.67,4.14-3.84,9.64-6.02,14.51-3.75,8.32-7.64,16.13-8.19,25.43-.3,5.08.34,10.11,1.79,14.98.47,1.54,1.02,3.07,1.58,4.57-13.95,1.62-80.3,23.42-129.58,83.46v16.98s66.3-87.51,131.46-95.23c.17.43.34.9.47,1.32,1.28,3.8,2.26,7.68,3.84,11.39,2.39,5.67,6.1,10.67,10.62,14.81,5.8,5.29,13.01,9.34,20.69,11.18,6.1,1.49,13.4,1.75,18.82-1.96,3.58-2.43,5.76-6.7,5.12-11.05h0l-.13-.04Z"/>
  <path class="cls-1" d="M318.67,39.36c-2.52-3.63-14.93-4.27-18.35-1.88-2.39,1.66-3.97,5.25-3.63,8.15.26,2.18,2.09,3.84,1.92,6.06-.3,4.35-5.93,9.56-10.07,10.15-10.37,1.45-2.3-9.56-.73-13.87,3.11-1.96,5.76-4.69,4.95-8.7-1.15-5.72-9.34-10.58-14.59-7.08-4.91,3.29-2.65,9.9-1.58,14.51,1.02,4.44.51,8.49-.38,12.93-4.99-4.05-8.87-8.36-10.97-14.59-2.18-6.53-1.79-16.47-7.3-21.33-5.25-4.65-13.14-.09-14.89,5.89-2.18,7.51,4.78,13.61,9.9,17.88,5.25,4.35,10.54,8.58,15.53,13.23-6.83,1.07-14.12,2.73-20.82-.17-3.93-1.71-7.08-3.37-10.71-5.5-1.88-1.11-4.57-2.77-6.74-3.2-.21-.98-.85-1.58-1.83-1.66h.43c-2.26-3.24-6.53-10.54-11.48-7.98-4.18,2.18-4.61,9.3-3.37,13.23,1.66,5.12,6.36,7.08,11.14,8.58,8.15,2.47,16.77,4.35,25.26,5.08,9.26.81,17.15-.94,25.13-5.33-3.11,4.18-12.89,19.03-15.02,42.41-2.56,27.86-5.5,99.88-1.07,132.35l10.97,2.09s-10.79-80-3.84-126.42c5.12-34.3,10.11-45.44,12.37-48.94,4.31,2.99,11.39,2.56,16.26,2.18,8.19-.64,15.23-5.67,15.91-14.04,5.8.3,10.97-8.87,7.55-13.82h0l.04-.17Z"/>
  <path class="cls-5" d="M272.03,116.37c2.35-3.11,2.56-9.34-1.24-11.52-3.93-2.26-7.59,3.75-9.77,6.06-1.71,1.83-3.63,3.46-6.02,4.22-2.43.77-5.03.68-7.59.55,4.65.21,7.59-2.3,10.54-5.63,3.29-3.71,7-7.89,7.47-13.06.26-2.82-.68-5.76-3.29-7.17-2.13-1.15-5.12-1.11-7.08.38-1.66,1.28-1.58,3.03-1.02,4.82.68,2.26,1.28,4.31.73,6.7-1.24,5.59-5.67,10.03-10.33,12.97-1.83-5.55-3.37-12.29-1.02-17.92.51-1.15,1.49-2.22,1.62-3.5.21-1.92-1.11-3.93-2.26-5.29-1.75-2.01-4.35-3.46-7.08-3.24-2.18.21-4.39,1.58-4.95,3.75-.51,1.88.55,3.41,1.58,4.91,1.32,1.88,2.18,3.75,2.56,6.06.51,2.77.51,5.67,1.28,8.41.68,2.39,2.05,4.22,3.75,5.97-3.93-1.24-7.89-2.39-11.73-3.84-3.88-1.45-8.23-3.24-10.84-6.61-2.69-3.5-2.13-11.43-8.28-10.75-2.52.3-5.03,2.09-5.63,4.61-.55,2.39.73,4.69,2.56,6.14,1.54,1.24,3.41,1.88,5.12,2.82,2.39,1.28,4.52,2.94,6.78,4.44,6.02,3.84,12.37,6.87,19.63,6.1-10.62,8.11-22.02,6.44-31.91,1.32-3.75-1.96-3.63-6.31-9.51-9.39-1.88-1.71-3.29-1.15-4.44.98-1.32,2.52-1.96,5.97-1.07,8.75.94,2.77,3.41,4.14,6.06,4.99,3.07,1.02,6.27,1.83,9.34,2.86,4.18,1.37,8.41,2.43,12.8,2.6,8.41.38,16.09-1.92,22.53-7.08-16.26,69.42-.94,117.25,7.08,135.77.38-1.66.94-3.29,2.05-4.57,1.45-1.62,2.9-3.46,5.08-4.18,1.62-.55,2.47-.85,3.37-1.02-28.33-51.58-14.51-115.16-12.03-127.4,4.48.68,5.67,1.02,10.2.94,5.08-.13,11.65-.64,14.98-5.03h0v.09Z"/>
  <path class="cls-3" d="M56.1,286.7c1.66,2.82,5.67,1.41,8.32,1.62,4.44.34,8.62,2.69,12.63,4.48-1.58,2.01-3.24,3.93-5.08,5.72-1.92,1.88-4.01,3.88-6.44,5.03-1.41.68-2.6.68-4.1.47-1.45-.17-2.86-.09-4.05.94-2.9,2.56-1.96,8.23,2.05,9.13,3.54.77,5.59-3.67,7.72-5.67,1.66-1.58,3.58-2.94,5.29-4.52,1.92-1.79,3.54-3.8,5.16-5.85-.77,4.69-4.44,8.49-7.42,11.99-1.75,2.05-3.67,4.1-5.21,6.36-.73,1.11-1.66,2.52-1.15,3.88.77,2.01,4.18,3.88,6.27,3.63,1.75-.21,2.94-1.75,3.84-3.11,1.62-2.47,2.77-5.29,3.75-8.06,1.62-4.61,2.56-9.26,2.6-14.08,44.8,2.56,155.56-32.77,155.56-32.77l-3.54-9c-21.59,14.85-125.06,41.13-150.83,37.25.55-1.49,1.15-2.94,1.62-4.48,1.96-6.14,2.65-13.57-1.32-19.11-3.46-4.86-11.26-7.68-16.77-4.57-5.38,3.03,1.37,7.68,4.05,9.64,2.3,1.66,4.61,3.37,6.31,5.67,1.49,2.01,2.22,4.31,2.86,6.7-1.37-1.28-2.69-2.52-4.27-3.54-1.24-.81-2.52-1.49-3.71-2.39-2.86-2.13-5.93-5.33-9.86-4.57-3.75.73-6.31,5.85-4.31,9.22h0Z"/>
  <path class="cls-3" d="M168.87,93.93s27.69-8.36,37.97-42.33c0,0,2.05-8.49-8.45-9.86-10.54-1.32-14.12,15.4-11.48,18.52,2.65,3.11,3.75,1.88,3.75,1.88,0,0-10.11,24.41-23.34,29.01,0,0,11.52-13.4,13.53-25.98,0,0,7.77-15.19-5.76-17.19-13.53-2.01-13.53,18.69-5.12,21.16,0,0,1.92,16.17-4.18,21.33,0,0-11.22-7.38-16.51-16.34,0,0-.47-12.37-11.52-7.77-11.05,4.61-5.08,18.22,2.9,16.34,0,0,12.97,10.88,20.44,12.29,0,0-10.11,3.84-37.67-10.28,0,0-5.29-14.63-13.7-5.29-8.41,9.34,3.11,16.34,8.58,14.93,0,0,18.05,11.14,38.61,5.5,0,0-6.95,14.12-23.85,14.42,0,0-14.98-4.95-16.64,6.78s8.75,13.06,17.32,7.51c8.58-5.55,28.37-14.21,33.11-31.02,0,0,8.92,19.03,11.26,40.36,2.35,21.33,15.57,68.82,68.18,113.49l3.8-7.94s-48.55-49.58-59.35-84.99c-10.79-35.41-10.62-48.51-21.8-64.6h0l-.09.04Z"/>
  <path class="cls-4" d="M251.64,251.8c-20.95-20.99-45.27-42.92-57.94-53.46-16.98-14.12-33.37-17.49-38.19-18.22,8.23-2.35,14.63-6.44,20.27-13.14,5.16-6.14,9.69-13.1,13.44-20.18,2.22-4.14,4.01-8.58,1.71-13.1-1.75-3.41-6.78-7.89-11.01-6.57-4.99,1.58-2.99,9.3-2.3,12.93l.3-.3c-.6.73-.64,1.54-.13,2.35-1.15,1.71-1.83,4.61-2.35,6.61-.98,3.84-2.01,7.04-3.46,10.79-2.47,6.36-8.49,10.11-13.7,13.95.26-6.4.94-12.71,1.54-19.11.6-6.23,1.15-14.89-5.29-18.47-5.12-2.82-13.4-.6-13.78,5.97-.43,6.91,6.44,13.27,9.34,19.07,2.77,5.5,3.03,10.97,2.39,16.98-3.54-2.35-6.57-4.69-8.87-8.32-2.35-3.75-5.25-9.69-10.71-8.62-5.85,1.15-8.02,9.86-5.03,14.42,2.09,3.2,5.72,3.24,9.09,2.47,3.93,1.83,16.6,3.8,8.75,9.73-3.16,2.39-10.37,2.65-13.44-.04-1.58-1.37-1.45-3.71-2.73-5.29-1.71-2.13-5.12-3.5-7.85-3.03-3.84.68-11.65,9.39-10.92,13.44,1.02,5.55,10.54,8.23,14.21,4.18,6.06,5.12,14.08,3.75,19.97-1.24,3.46-2.94,8.49-7.38,9.34-12.25,3.84.81,14.55,4.95,40.75,24.32,17.32,12.84,37.16,33.79,52.95,51.88.34-2.26.94-4.74,2.47-6.49.38-.43.81-.85,1.19-1.28h0ZM261.41,275.39c9.17,11.14,15.15,18.94,15.15,18.94l5.89-8.66c-3.16-4.18-7.34-9.05-12.03-14.21-1.37,1.24-2.9,2.3-4.48,2.99-1.37.55-2.94.85-4.52.98h0v-.04Z"/>
  <path class="cls-2" d="M253.86,273.86l-11.82-6.19s-58.28,56.23-62.08,175.62c-6.27-8.53-15.06-13.99-25.64-16.3-5.55-1.19-11.14-1.28-16.77-1.02-4.18.21-8.41.17-12.59.43-3.54.21-7.13,1.07-9.17,4.22s-2.43,7.59-1.58,11.18c.68,3.07,2.3,4.22,5.21,2.73,8.28-1.88,9.6-7.34,14.93-8.49,13.99-3.07,28.71-1.37,39.21,12.25-8.75-3.37-17.66-1.71-26.41,1.07-3.29,1.07-6.53,2.43-9.9,3.24-2.43.6-4.99.77-7.3,1.79-2.77,1.24-5.12,3.63-5.21,6.78-.09,3.37,2.43,6.44,5.46,7.64,7.42,2.9,9.34-7.13,13.87-10.58,4.35-3.33,10.37-4.1,15.66-4.61,5.25-.51,10.58-.64,15.83-.85-2.73,1.58-5.03,3.41-6.66,6.14-1.88,3.16-2.86,6.7-4.39,10.03-1.24,2.69-2.94,4.74-5.21,6.66-1.75,1.49-3.58,3.07-3.58,5.55,0,2.9,2.3,5.38,4.91,6.31,3.33,1.24,7,.26,9.86-1.66,1.92-1.28,4.22-3.37,4.57-5.8.26-1.66-.64-3.29-.85-4.91-1.07-7.77,3.07-15.7,7.21-21.93,4.82,5.21,8.87,12.2,8.53,19.54-.13,3.16-1.54,5.5-3.16,8.11-1.28,2.09-1.96,4.22-.3,6.36,1.92,2.52,5.63,3.54,8.66,2.86,3.71-.85,5.89-4.18,6.49-7.77,1.11-6.57-2.13-12.97-4.95-18.69-2.52-5.12-5.38-9.22-11.22-10.5,3.2.68,6.49,1.41,9.26,3.2,2.73,1.75,4.57,4.39,6.1,7.21,1.92,3.58,4.52,12.29,10.11,10.79,5.46-1.49,7.25-9.26,5.38-13.91-2.69-6.57-10.71-9.39-16.94-11.22-5.59-1.62-11.31-2.69-17.07-3.33,1.11-17.75,10.62-133.33,71.59-171.9h0l-.04-.04Z"/>
  <path class="cls-3" d="M243.53,279.19l9.22,4.52s-24.83,83.75-31.45,103c-3.5,10.15-2.77,19.24-2.56,25.69,3.24-.77,20.39-4.14,32.51,18.01,0,0,4.95,10.5-3.11,9.81-8.02-.68-16.34-6.95-6.91-11.26,0,0-5.85-10.11-21.85-10.75l9.51,12.5s7.64,3.67,2.35,9.81c-5.29,6.14-14.55-2.18-10.33-7.77l-8.58-15.49s-3.29.68-4.01,5.29c0,0,2.69,10.58-5.5,9.26-8.23-1.32-6.66-11.39-1.32-10.88,0,0,1.49-5.59,7.77-7.17,0,0-8.87-2.6-13.31-.38,0,0-6.4,6.57-9.51,3.93-3.11-2.65-6.27-12.33,6.36-11.43,0,0,14.42-1.41,21.38,5.59,0,0-16.17-24.49-35.03-12.63,0,0,.13,11.43-8.58,6.91-8.7-4.52-2.13-12.25,3.37-11.48,0,0,28.67-14.46,41.43,17.62-1.83-22.23,8.79-50.09,9.05-58.88.26-10.2,19.07-73.9,19.07-73.9h0l.04.09Z"/>
  <path class="cls-3" d="M463.73,384.4c.47-3.8-1.92-6.95-5.08-8.75-5.8-3.29-12.93-2.43-19.24-1.75-5.72.64-10.5,1.88-13.7,6.95,1.75-2.77,3.54-5.59,6.14-7.59,2.6-1.96,5.72-2.82,8.87-3.24,4.01-.55,13.1,0,13.61-5.8.47-5.63-6.23-9.98-11.22-9.81-7.08.26-12.5,6.87-16.34,12.07-3.46,4.69-6.4,9.69-9,14.89-16.3-7.13-121.64-55.55-137.05-126.08l-5.33,4.86h0c0,1.11-.09,2.22-.47,3.29h0c-.09.26-.21.43-.3.68-.09.51-.17,1.02-.34,1.54-.3.98-.73,1.96-1.28,2.86,8.79,16.21,46.46,76.07,141.65,114.18-10.15,2.99-18.26,9.34-24.06,18.52-3.03,4.78-5.03,10.03-6.7,15.4-1.24,4.01-2.69,7.94-3.88,11.95-1.02,3.41-1.45,7.04.81,10.07,2.26,2.99,6.31,4.86,9.98,5.33,3.11.38,4.74-.73,4.31-3.93,1.07-8.45-3.58-11.52-2.86-16.94,1.88-14.21,8.53-27.43,24.92-32.64-6.19,7.08-7.68,16-8.02,25.17-.13,3.46.04,6.95-.34,10.41-.3,2.47-.98,4.95-.81,7.47.21,3.03,1.62,6.06,4.61,7.21,3.11,1.24,6.87-.09,9.05-2.56,5.25-5.97-3.5-11.22-5.21-16.64-1.62-5.25-.3-11.14,1.02-16.3,1.32-5.12,3.03-10.15,4.61-15.19.55,3.11,1.49,5.89,3.5,8.36,2.3,2.86,5.33,4.99,7.89,7.55,2.09,2.09,3.46,4.39,4.48,7.17.81,2.18,1.66,4.39,3.97,5.25,2.73.98,5.85-.34,7.64-2.47,2.26-2.69,2.65-6.53,1.83-9.86-.55-2.26-1.71-5.12-3.88-6.27-1.49-.81-3.33-.51-4.91-.85-7.68-1.66-13.7-8.28-18.13-14.29,6.53-2.77,14.51-4.18,21.29-1.32,2.9,1.19,4.65,3.33,6.53,5.72,1.49,1.92,3.29,3.29,5.85,2.47,3.03-.94,5.25-4.1,5.63-7.17h0l-.04.09Z"/>
  <path class="cls-5" d="M273.57,483.99c3.37,2.86,15.53.26,18.18-2.9,1.88-2.22,2.47-6.1,1.41-8.83-.81-2.05-2.99-3.16-3.41-5.33-.85-4.31,3.24-10.79,7.13-12.42,9.64-4.1,4.69,8.62,4.31,13.23-2.52,2.69-4.35,6.06-2.52,9.69,2.6,5.21,11.78,7.81,15.96,3.03,3.88-4.44,0-10.24-2.22-14.42-2.13-4.01-2.69-8.06-2.99-12.59,5.85,2.65,10.75,5.8,14.34,11.26,3.8,5.72,6.02,15.45,12.59,18.73,6.27,3.11,12.71-3.33,12.84-9.56.13-7.81-8.15-11.9-14.21-14.68-6.19-2.82-12.37-5.55-18.43-8.75,6.31-2.77,12.93-6.31,20.14-5.21,4.22.64,7.72,1.41,11.78,2.56,2.13.6,5.16,1.49,7.34,1.37.43.9,1.24,1.28,2.22,1.15l-.43.13c2.99,2.56,9.05,8.49,13.14,4.74,3.5-3.2,2.05-10.2-.17-13.61-2.9-4.52-7.98-5.21-12.97-5.38-8.53-.3-17.32.13-25.73,1.62-9.17,1.62-16.34,5.33-22.87,11.65,1.92-4.86,7.51-21.72,3.54-44.84-4.74-27.56-20.52-97.92-33.19-128.13l-11.14.81s31.1,74.45,36.44,121.13c3.93,34.47,2.01,46.51.73,50.47-4.95-1.79-11.69.51-16.26,2.13-7.72,2.73-13.23,9.43-11.73,17.71-5.67,1.24-8.28,11.43-3.71,15.32h0l-.09-.09Z"/>
  <path class="cls-5" d="M244.34,269.29v-11.31s-87.47-42.54-118.95-48.81c-14.85-4.86-36.82-18.09-44.16-23.98,3.75-3.07,24.41-22.23,9.3-55.68,0,0-7.89-14.93-14.12-4.99-6.23,9.98-6.23,25.09,7.04,17.92,0,0,6.66,15.7-6.66,34.77l-6.23-22.02s2.39-12.07-9.39-11.35c-11.78.77-10.2,18.82,0,18.82l10.54,23.55s-3.63,3.2-9.64,0c0,0-9.94-12.42-15.57-1.71-5.67,10.71,7.42,17.71,11.48,11.09,0,0,7.81,3.16,15.1-2.77,0,0-4.74,12.59-11.22,15.79,0,0-13.23,1.71-12.93,7.64.34,5.93,8.83,18.13,18.86,2.6,0,0,14.25-15.53,12.2-29.78,0,0,14.34,40.23-16,51.8,0,0-13.18-10.2-15.57,3.93-2.39,14.08,12.37,13.23,16.3,6.1,0,0,41.94-20.65,15.83-63.62,26.15,26.58,52.18,30.81,64.13,35.33,20.01,7.59,99.63,46.59,99.63,46.59h0l.04.09Z"/>
  <path class="cls-4" d="M233.33,271s-78.81,36.95-97.24,42.5c-18.43,5.55-51.58,19.33-60.29,43.35,0,0-8.92-34.35-32.81-31.66,0,0-8.96-8.79-13.95.51-4.99,9.3,4.18,20.95,13.95,8.32,0,0,14.12-6.7,24.15,18.77,0,0-13.31-.77-20.27,4.1,0,0-11.78-3.11-9.39,9.17,2.39,12.29,11.35,8.53,15.91,0,0,0,4.74-8.02,19.8-3.2,0,0,2.47,7.81-7.94,16.55,0,0-9.6-1.96-11.99,7.04-2.39,9,15.74,13.78,16,2.3,0,0,9.6-9.6,10.92-21.85,0,0,8.41,14.08,4.48,24.28,0,0-11.05,4.01-5.8,13.87,5.25,9.86,13.65-.04,13.65-2.99,0,0,9.56-26.84-14.98-41.22,0,0,18.43-27.86,55.77-39.94,37.38-12.07,106.75-39.47,111.02-43.31l-11.01-6.53h0v-.09Z"/>
  <path class="cls-2" d="M257.57,244.93c-37.21,17.45-124.84,23.04-136.62,23.72.68-9.64.73-19.2-3.16-28.29-2.26-5.33-5.67-11.05-10.45-14.51-2.56-1.88-5.67-2.56-8.45-.68-2.39,1.58-4.1,4.91-2.86,7.72,1.32,3.07,5.08,3.41,8.02,3.63,0,0-.09-.09-.09-.13l.38.13h-.26c.55.77,1.41,1.37,2.01,2.13,1.83,2.35,3.5,4.74,4.82,7.42.81,1.58,1.37,3.2,2.05,4.82.55,1.41.77,2.9,1.32,4.27.73,1.79,2.09,3.29,2.73,5.08-2.65-3.67-6.1-6.27-10.15-8.23-2.05-.98-4.31-1.79-6.02-3.41-1.45-1.41-2.52-2.94-4.57-3.5-4.74-1.24-13.14,2.94-10.75,8.79,1.02,2.47,3.75,3.97,6.31,4.05,2.35.09,3.93-1.15,5.85-2.26,2.09-1.19,3.97-.43,5.85.77,3.41,2.18,6.44,5.08,9.26,7.89.94.94,4.78,4.1,3.88,5.85-.77,1.45-4.39.9-5.63.77-2.65-.3-5.16-1.07-7.47-2.43-2.01-1.15-3.97-2.9-6.36-3.11-4.65-.38-9.51,6.87-6.1,10.71,2.77,3.11,7.94.3,11.18-.43,1.79-.38,3.67-.55,5.5-.81,2.9-.47,5.76-1.11,8.62-1.75-.77,2.09-1.28,5.08-2.77,6.78-.64.77-1.58,1.54-2.26,2.26-.43.43-1.37.94-1.54,1.54-2.86-1.54-6.19-2.65-9.17-.68-2.99,1.96-4.44,6.49-3.29,9.9,1.07,3.07,4.05,2.86,6.7,2.3,3.37-.68,6.87-1.75,9.39-4.22,3.03-2.94,4.22-7.21,5.38-11.18,1.11,3.37,2.18,7,1.92,10.58-.26,3.33-2.18,6.23-3.46,9.26-.64,1.54-1.32,3.07-1.92,4.61-.51,1.24-.98,2.6-.38,3.88,1.96,4.18,8.92,3.71,11.9,1.28,1.71-1.41,2.9-3.63,2.65-5.89-.21-1.79-1.41-2.99-2.73-4.05.85-5.93,1.54-11.78.26-17.71-.34-1.49-.85-2.94-1.24-4.44-.34-1.37-.64-2.73-1.24-4.01-.34-.73-.81-1.28-1.32-1.83,41.56,2.47,98.09-7.85,125.06-13.44.38-1.79.94-3.63,2.13-4.95,1.45-1.62,2.9-3.46,5.08-4.18,1.96-.68,2.77-.94,3.93-1.11l-1.88-2.9h-.04Z"/>
  <path class="cls-1" d="M156.88,418.15c-3.46.64-10.88-6.06-11.48-9.3-.43-2.3.73-5.25,2.56-6.7,1.37-1.11,3.37-.98,4.52-2.35,2.3-2.65,2.09-8.79,0-11.48-5.08-6.7-6.74,4.1-8.28,7.47.64,2.86.6,5.93-2.13,7.72-3.88,2.56-11.31.68-12.29-4.27-.94-4.65,4.14-7.08,7.34-9.13,3.11-1.96,5.12-4.52,7.13-7.55-5.12-.51-9.77-.3-14.46,2.05-4.91,2.47-10.37,8.32-16.26,7.98-5.59-.34-7.51-7.42-5.08-11.78,3.03-5.46,10.41-5.03,15.74-4.52,5.46.51,10.84,1.11,16.3,1.32-3.24-4.48-6.49-9.56-11.9-11.69-3.2-1.24-5.93-2.09-9.22-2.94-1.71-.43-4.18-1.02-5.63-2.01-.68.43-1.37.43-2.01-.09l.26.26c-3.11.55-9.69,2.26-11.01-1.96-1.15-3.63,2.69-7.89,5.59-9.39,3.84-1.96,7.64-.43,11.18,1.45,6.02,3.2,11.99,7.04,17.19,11.43,5.72,4.78,9.22,10.24,11.22,17.28.64-4.14,3.5-18.09,15.53-32.55,14.34-17.24,53.46-59.73,74.41-75.65l7.38,5.03s-51.46,39.21-73.86,69.5c-16.55,22.36-20.05,31.49-20.74,34.73,4.14.73,7.89,5.03,10.41,7.98,4.27,4.99,5.42,11.86,1.07,16.98,3.46,3.11,1.19,11.26-3.54,12.12h0l.04.04Z"/>
  <path class="cls-4" d="M294.82,394.26c-.21-1.83-1.88-3.11-3.29-4.05-2.6-1.75-5.59-2.94-8.53-3.97-4.86-1.75-9.81-2.73-14.93-2.77,2.22-38.66-11.52-93.31-16.73-112.38-.9-.94-1.62-2.01-2.13-3.33-.38-1.02-.68-2.05-.94-3.11l-8.36,3.29c15.74,22.91,23.59,84.99,23.38,114.26-1.58-.6-3.11-1.24-4.74-1.75-6.53-2.05-14.42-2.77-20.31,1.41-5.16,3.67-8.15,11.95-4.86,17.79,3.24,5.67,8.19-1.45,10.24-4.27,1.75-2.43,3.58-4.91,6.02-6.7,2.13-1.58,4.61-2.35,7.13-3.03-1.32,1.41-2.69,2.86-3.75,4.48-.85,1.28-1.62,2.69-2.56,3.93-2.26,3.03-5.67,6.27-4.82,10.45.81,3.97,6.19,6.7,9.77,4.57,2.99-1.75,1.49-6.02,1.75-8.79.38-4.69,2.86-9.17,4.74-13.4,2.13,1.66,4.18,3.46,6.1,5.38,1.96,2.05,4.1,4.27,5.38,6.87.73,1.45.73,2.77.51,4.35-.21,1.58-.09,3.03,1.02,4.27,2.69,3.11,8.75,2.05,9.69-2.18.81-3.75-3.88-5.93-6.02-8.19-1.71-1.79-3.16-3.8-4.82-5.59-1.88-2.05-4.01-3.75-6.19-5.46,4.99.81,9,4.69,12.71,7.85,2.18,1.88,4.35,3.88,6.74,5.5,1.15.81,2.69,1.79,4.14,1.24,2.13-.81,4.1-4.44,3.84-6.66h-.17Z"/>
  <path class="cls-2" d="M392.99,364.69c-29.23-4.18-45.27,13.78-45.27,13.78-8.23-14.08-18.13-18.56-41.09-39.17-17.07-15.32-32.68-49.24-39.55-65.54-.38.21-.77.47-1.15.64-1.96.81-4.31,1.24-6.57,1.07,16.04,48.13,44.07,71.94,58.33,80.55,15.27,9.26,26.5,22.7,26.5,22.7-14.34-2.3-27.86,9.56-35.03,14.08-7.17,4.52-9.86,12.84-.43,15.7,9.43,2.86,10.97-10.15,10.97-10.15,6.19-12.63,19.29-12.93,19.29-12.93-11.48,13.53-9.43,31.06-9.43,31.06-2.99,3.63-1.75,14.76,8.28,11.73,9.98-3.07.85-12.2.85-12.2-.98-25.77,5.5-32.04,5.5-32.04-1.54,6.14,2.09,19.75,2.09,19.75-4.22,5.38,3.97,14.68,11.31,7.94,7.34-6.7-1.83-11.43-1.83-11.43-4.91-7.13-6.53-18.22-6.53-18.22,6.02-2.82,17.54,4.35,17.54,4.35-1.07,7.21,14.55,14.51,17.79,3.58,3.24-10.92-10.92-10.41-10.92-10.41-10.2-2.9-24.36,1.07-24.36,1.07,8.15-8.36,30.08-7.42,30.08-7.42,0,0-1.32.38.09,3.46,1.41,3.07,15.32,6.27,18.01-2.13,2.69-8.41-4.44-9.86-4.44-9.86h0v.04Z"/>
  <path class="cls-1" d="M283.98,236.1c-7.85-4.48-17.02-6.7-26.03-6.91h-.51c-8.66,1.15-17.32,2.9-23,10.2-6.19,7.98-7.42,19.37-5.59,29.01,3.58,18.69,18.94,25.86,36.52,25.64,15.57-.17,24.79-8.19,28.37-23.42,2.9-12.29,2.39-27.56-9.77-34.52h0ZM274.93,263.44c-.09.26-.21.43-.3.68-.09.51-.17,1.02-.34,1.54-1.11,3.88-4.69,7.25-8.32,8.79-3.75,1.54-9,1.79-12.29-1.11-1.88-1.66-3.63-3.16-4.52-5.59-.9-2.39-1.66-4.91-1.32-7.51.34-2.39.94-5.25,2.6-7.13,1.45-1.62,2.9-3.46,5.08-4.18,3.03-1.07,3.2-1.15,6.4-1.24,2.05-.09,4.27.55,6.1,1.45,2.82,1.32,5.03,2.82,6.4,5.72,1.28,2.69,1.45,5.8.47,8.58h.04Z"/>
</svg>